<svg xmlns="http://www.w3.org/2000/svg" xmlns:xlink="http://www.w3.org/1999/xlink" width="100" zoomAndPan="magnify" viewBox="0 0 75 37.5" height="50" preserveAspectRatio="xMidYMid meet" version="1.0"><defs><g/><clipPath id="9089ca393e"><path d="M 0.492188 0 L 74.503906 0 L 74.503906 37.007812 L 0.492188 37.007812 Z M 0.492188 0 " clip-rule="nonzero"/></clipPath><clipPath id="7f1b41e2ce"><path d="M 0.492188 0 L 15 0 L 15 16 L 0.492188 16 Z M 0.492188 0 " clip-rule="nonzero"/></clipPath><clipPath id="b61bc7736d"><path d="M -6.28125 20.421875 L -21.113281 -0.816406 L 1.945312 -16.921875 L 16.777344 4.316406 Z M -6.28125 20.421875 " clip-rule="nonzero"/></clipPath><clipPath id="f405836815"><path d="M -20.96875 -0.609375 L -6.132812 20.628906 L 16.921875 4.523438 L 2.089844 -16.710938 Z M -20.96875 -0.609375 " clip-rule="nonzero"/></clipPath><clipPath id="914da7e4a7"><path d="M -8.910156 -6.226562 C -8.957031 -4.597656 -10.296875 -3.308594 -11.925781 -3.320312 C -13.058594 -3.328125 -14.207031 -2.996094 -15.210938 -2.296875 C -17.785156 -0.5 -18.410156 3.050781 -16.609375 5.628906 C -15.367188 7.410156 -13.292969 8.261719 -11.28125 8.03125 C -9.730469 7.851562 -8.300781 8.894531 -7.992188 10.425781 C -7.816406 11.304688 -7.457031 12.164062 -6.910156 12.949219 C -4.78125 15.996094 -0.582031 16.746094 2.460938 14.621094 C 4.152344 13.441406 5.132812 11.617188 5.304688 9.710938 C 5.382812 8.859375 5.820312 8.078125 6.507812 7.570312 C 7.195312 7.0625 8.066406 6.875 8.902344 7.050781 C 10.113281 7.300781 11.417969 7.078125 12.507812 6.316406 C 14.605469 4.851562 15.117188 1.953125 13.652344 -0.148438 C 12.183594 -2.25 9.289062 -2.765625 7.191406 -1.300781 C 7.109375 -1.246094 7.035156 -1.1875 6.960938 -1.128906 C 5.933594 -0.304688 4.484375 -0.246094 3.394531 -0.988281 C 2.304688 -1.730469 1.824219 -3.097656 2.214844 -4.355469 C 2.714844 -5.980469 2.488281 -7.808594 1.441406 -9.308594 C -0.359375 -11.886719 -3.910156 -12.519531 -6.484375 -10.722656 C -8.015625 -9.652344 -8.855469 -7.960938 -8.910156 -6.226562 Z M -8.910156 -6.226562 " clip-rule="evenodd"/></clipPath><clipPath id="eb1217ae5b"><path d="M 58 25 L 74.503906 25 L 74.503906 37.007812 L 58 37.007812 Z M 58 25 " clip-rule="nonzero"/></clipPath><clipPath id="bc5bb91862"><path d="M 76.515625 18.507812 L 90.066406 42.300781 L 66.914062 55.488281 L 53.363281 31.691406 Z M 76.515625 18.507812 " clip-rule="nonzero"/></clipPath><clipPath id="0e383a367f"><path d="M 67.285156 55.503906 L 53.730469 31.707031 L 76.882812 18.523438 L 90.4375 42.320312 Z M 67.285156 55.503906 " clip-rule="nonzero"/></clipPath><clipPath id="8d3c56d4ba"><path d="M 76.144531 35.863281 C 75.515625 35.890625 74.960938 36.296875 74.75 36.886719 C 74.539062 37.476562 74.714844 38.128906 75.191406 38.527344 C 75.800781 39.035156 76.332031 39.660156 76.746094 40.386719 C 78.644531 43.722656 77.429688 48.003906 74.03125 49.9375 C 70.632812 51.875 66.328125 50.738281 64.429688 47.402344 C 63.367188 45.535156 63.28125 43.375 64.007812 41.496094 C 64.160156 41.089844 64.136719 40.640625 63.9375 40.261719 C 63.738281 39.882812 63.382812 39.609375 62.960938 39.511719 C 61.472656 39.160156 60.140625 38.230469 59.332031 36.8125 C 57.773438 34.074219 58.773438 30.5625 61.5625 28.972656 C 63.804688 27.695312 66.53125 28.050781 68.320312 29.660156 C 68.707031 30.007812 69.246094 30.132812 69.753906 29.988281 C 70.257812 29.84375 70.660156 29.449219 70.808594 28.949219 C 71.1875 27.703125 72.019531 26.59375 73.238281 25.902344 C 75.78125 24.453125 79.023438 25.371094 80.476562 27.921875 C 81.929688 30.476562 81.066406 33.730469 78.523438 35.179688 C 77.769531 35.609375 76.957031 35.832031 76.144531 35.863281 Z M 76.144531 35.863281 " clip-rule="evenodd"/></clipPath><clipPath id="36e4f0267f"><path d="M 3.011719 18.632812 L 4 18.632812 L 4 20 L 3.011719 20 Z M 3.011719 18.632812 " clip-rule="nonzero"/></clipPath><clipPath id="13cab7ddc1"><path d="M 3.011719 25 L 4 25 L 4 27 L 3.011719 27 Z M 3.011719 25 " clip-rule="nonzero"/></clipPath><clipPath id="f5d3cd3840"><path d="M 3.011719 20 L 4 20 L 4 22 L 3.011719 22 Z M 3.011719 20 " clip-rule="nonzero"/></clipPath><clipPath id="29a685921f"><path d="M 3.011719 27 L 4 27 L 4 29 L 3.011719 29 Z M 3.011719 27 " clip-rule="nonzero"/></clipPath><clipPath id="31f4556324"><path d="M 3.011719 23 L 4 23 L 4 25 L 3.011719 25 Z M 3.011719 23 " clip-rule="nonzero"/></clipPath><clipPath id="aa0969d4cb"><path d="M 3.011719 30 L 4 30 L 4 32 L 3.011719 32 Z M 3.011719 30 " clip-rule="nonzero"/></clipPath><clipPath id="3faf468822"><path d="M 3.011719 32 L 4 32 L 4 33.4375 L 3.011719 33.4375 Z M 3.011719 32 " clip-rule="nonzero"/></clipPath><clipPath id="6ee4dc84b6"><path d="M 5 18.632812 L 7 18.632812 L 7 20 L 5 20 Z M 5 18.632812 " clip-rule="nonzero"/></clipPath><clipPath id="fa6a2d832c"><path d="M 5 32 L 7 32 L 7 33.4375 L 5 33.4375 Z M 5 32 " clip-rule="nonzero"/></clipPath><clipPath id="98ad2738b2"><path d="M 7 18.632812 L 8.191406 18.632812 L 8.191406 20 L 7 20 Z M 7 18.632812 " clip-rule="nonzero"/></clipPath><clipPath id="404b1ae460"><path d="M 7 25 L 8.191406 25 L 8.191406 27 L 7 27 Z M 7 25 " clip-rule="nonzero"/></clipPath><clipPath id="bc6b831ed4"><path d="M 7 20 L 8.191406 20 L 8.191406 22 L 7 22 Z M 7 20 " clip-rule="nonzero"/></clipPath><clipPath id="8071561464"><path d="M 7 27 L 8.191406 27 L 8.191406 29 L 7 29 Z M 7 27 " clip-rule="nonzero"/></clipPath><clipPath id="0bae3bd526"><path d="M 7 23 L 8.191406 23 L 8.191406 25 L 7 25 Z M 7 23 " clip-rule="nonzero"/></clipPath><clipPath id="a4eae27c30"><path d="M 7 30 L 8.191406 30 L 8.191406 32 L 7 32 Z M 7 30 " clip-rule="nonzero"/></clipPath><clipPath id="97e0569785"><path d="M 7 32 L 8.191406 32 L 8.191406 33.4375 L 7 33.4375 Z M 7 32 " clip-rule="nonzero"/></clipPath><clipPath id="4563af4cb0"><path d="M 65.335938 3.699219 L 67 3.699219 L 67 5 L 65.335938 5 Z M 65.335938 3.699219 " clip-rule="nonzero"/></clipPath><clipPath id="d809e85a62"><path d="M 65.335938 10 L 67 10 L 67 12 L 65.335938 12 Z M 65.335938 10 " clip-rule="nonzero"/></clipPath><clipPath id="30fb330455"><path d="M 65.335938 6 L 67 6 L 67 7 L 65.335938 7 Z M 65.335938 6 " clip-rule="nonzero"/></clipPath><clipPath id="2b522d6d06"><path d="M 65.335938 13 L 67 13 L 67 14 L 65.335938 14 Z M 65.335938 13 " clip-rule="nonzero"/></clipPath><clipPath id="d852433e0e"><path d="M 65.335938 8 L 67 8 L 67 10 L 65.335938 10 Z M 65.335938 8 " clip-rule="nonzero"/></clipPath><clipPath id="b0593d9c64"><path d="M 65.335938 15 L 67 15 L 67 17 L 65.335938 17 Z M 65.335938 15 " clip-rule="nonzero"/></clipPath><clipPath id="9806ec1f53"><path d="M 65.335938 17 L 67 17 L 67 18.503906 L 65.335938 18.503906 Z M 65.335938 17 " clip-rule="nonzero"/></clipPath><clipPath id="8d5f14175e"><path d="M 67 3.699219 L 69 3.699219 L 69 5 L 67 5 Z M 67 3.699219 " clip-rule="nonzero"/></clipPath><clipPath id="338e386987"><path d="M 67 17 L 69 17 L 69 18.503906 L 67 18.503906 Z M 67 17 " clip-rule="nonzero"/></clipPath><clipPath id="789de79c56"><path d="M 69 3.699219 L 70.519531 3.699219 L 70.519531 5 L 69 5 Z M 69 3.699219 " clip-rule="nonzero"/></clipPath><clipPath id="9a2cfca013"><path d="M 69 10 L 70.519531 10 L 70.519531 12 L 69 12 Z M 69 10 " clip-rule="nonzero"/></clipPath><clipPath id="10f878ab7a"><path d="M 69 6 L 70.519531 6 L 70.519531 7 L 69 7 Z M 69 6 " clip-rule="nonzero"/></clipPath><clipPath id="0547f39117"><path d="M 69 13 L 70.519531 13 L 70.519531 14 L 69 14 Z M 69 13 " clip-rule="nonzero"/></clipPath><clipPath id="c9afc9599c"><path d="M 69 8 L 70.519531 8 L 70.519531 10 L 69 10 Z M 69 8 " clip-rule="nonzero"/></clipPath><clipPath id="c5fd9dfcb4"><path d="M 69 15 L 70.519531 15 L 70.519531 17 L 69 17 Z M 69 15 " clip-rule="nonzero"/></clipPath><clipPath id="e85a799842"><path d="M 69 17 L 70.519531 17 L 70.519531 18.503906 L 69 18.503906 Z M 69 17 " clip-rule="nonzero"/></clipPath></defs><g clip-path="url(#9089ca393e)"><path fill="#ffffff" d="M 0.492188 0 L 74.507812 0 L 74.507812 44.40625 L 0.492188 44.40625 Z M 0.492188 0 " fill-opacity="1" fill-rule="nonzero"/><path fill="#ffffff" d="M 0.492188 0 L 74.507812 0 L 74.507812 37.007812 L 0.492188 37.007812 Z M 0.492188 0 " fill-opacity="1" fill-rule="nonzero"/><path fill="#ffffff" d="M 0.492188 0 L 74.507812 0 L 74.507812 37.007812 L 0.492188 37.007812 Z M 0.492188 0 " fill-opacity="1" fill-rule="nonzero"/></g><g clip-path="url(#7f1b41e2ce)"><g clip-path="url(#b61bc7736d)"><g clip-path="url(#f405836815)"><g clip-path="url(#914da7e4a7)"><path fill="#080229" d="M -5.949219 3.019531 L 12.480469 -5.617188 L 21.5625 13.726562 L 3.132812 22.367188 Z M -5.949219 3.019531 " fill-opacity="1" fill-rule="nonzero"/></g></g></g></g><g clip-path="url(#eb1217ae5b)"><g clip-path="url(#bc5bb91862)"><g clip-path="url(#0e383a367f)"><g clip-path="url(#8d3c56d4ba)"><path fill="#080229" d="M 60.730469 18.214844 L 52.871094 34.785156 L 71.546875 43.242188 L 79.410156 26.671875 Z M 60.730469 18.214844 " fill-opacity="1" fill-rule="nonzero"/></g></g></g></g><g clip-path="url(#36e4f0267f)"><path fill="#080229" d="M 3.8125 19.074219 C 3.8125 19.191406 3.769531 19.289062 3.691406 19.371094 C 3.613281 19.453125 3.519531 19.496094 3.410156 19.496094 C 3.300781 19.496094 3.207031 19.453125 3.128906 19.371094 C 3.050781 19.289062 3.011719 19.191406 3.011719 19.074219 C 3.011719 18.960938 3.050781 18.863281 3.128906 18.78125 C 3.207031 18.699219 3.300781 18.65625 3.410156 18.65625 C 3.519531 18.65625 3.613281 18.699219 3.691406 18.78125 C 3.769531 18.863281 3.8125 18.960938 3.8125 19.074219 Z M 3.8125 19.074219 " fill-opacity="1" fill-rule="nonzero"/></g><g clip-path="url(#13cab7ddc1)"><path fill="#080229" d="M 3.8125 26.035156 C 3.8125 26.152344 3.769531 26.25 3.691406 26.332031 C 3.613281 26.414062 3.519531 26.453125 3.410156 26.453125 C 3.300781 26.453125 3.207031 26.414062 3.128906 26.332031 C 3.050781 26.25 3.011719 26.152344 3.011719 26.035156 C 3.011719 25.917969 3.050781 25.820312 3.128906 25.738281 C 3.207031 25.65625 3.300781 25.617188 3.410156 25.617188 C 3.519531 25.617188 3.613281 25.65625 3.691406 25.738281 C 3.769531 25.820312 3.8125 25.917969 3.8125 26.035156 Z M 3.8125 26.035156 " fill-opacity="1" fill-rule="nonzero"/></g><g clip-path="url(#f5d3cd3840)"><path fill="#080229" d="M 3.8125 21.394531 C 3.8125 21.511719 3.769531 21.609375 3.691406 21.691406 C 3.613281 21.773438 3.519531 21.816406 3.410156 21.816406 C 3.300781 21.816406 3.207031 21.773438 3.128906 21.691406 C 3.050781 21.609375 3.011719 21.511719 3.011719 21.394531 C 3.011719 21.28125 3.050781 21.179688 3.128906 21.097656 C 3.207031 21.015625 3.300781 20.976562 3.410156 20.976562 C 3.519531 20.976562 3.613281 21.015625 3.691406 21.097656 C 3.769531 21.179688 3.8125 21.28125 3.8125 21.394531 Z M 3.8125 21.394531 " fill-opacity="1" fill-rule="nonzero"/></g><g clip-path="url(#29a685921f)"><path fill="#080229" d="M 3.8125 28.355469 C 3.8125 28.46875 3.769531 28.570312 3.691406 28.652344 C 3.613281 28.734375 3.519531 28.773438 3.410156 28.773438 C 3.300781 28.773438 3.207031 28.734375 3.128906 28.652344 C 3.050781 28.570312 3.011719 28.46875 3.011719 28.355469 C 3.011719 28.238281 3.050781 28.140625 3.128906 28.058594 C 3.207031 27.976562 3.300781 27.933594 3.410156 27.933594 C 3.519531 27.933594 3.613281 27.976562 3.691406 28.058594 C 3.769531 28.140625 3.8125 28.238281 3.8125 28.355469 Z M 3.8125 28.355469 " fill-opacity="1" fill-rule="nonzero"/></g><g clip-path="url(#31f4556324)"><path fill="#080229" d="M 3.8125 23.714844 C 3.8125 23.832031 3.769531 23.929688 3.691406 24.011719 C 3.613281 24.09375 3.519531 24.132812 3.410156 24.132812 C 3.300781 24.132812 3.207031 24.09375 3.128906 24.011719 C 3.050781 23.929688 3.011719 23.832031 3.011719 23.714844 C 3.011719 23.597656 3.050781 23.5 3.128906 23.417969 C 3.207031 23.335938 3.300781 23.296875 3.410156 23.296875 C 3.519531 23.296875 3.613281 23.335938 3.691406 23.417969 C 3.769531 23.5 3.8125 23.597656 3.8125 23.714844 Z M 3.8125 23.714844 " fill-opacity="1" fill-rule="nonzero"/></g><g clip-path="url(#aa0969d4cb)"><path fill="#080229" d="M 3.8125 30.675781 C 3.8125 30.789062 3.769531 30.890625 3.691406 30.96875 C 3.613281 31.050781 3.519531 31.09375 3.410156 31.09375 C 3.300781 31.09375 3.207031 31.050781 3.128906 30.96875 C 3.050781 30.890625 3.011719 30.789062 3.011719 30.675781 C 3.011719 30.558594 3.050781 30.460938 3.128906 30.378906 C 3.207031 30.296875 3.300781 30.253906 3.410156 30.253906 C 3.519531 30.253906 3.613281 30.296875 3.691406 30.378906 C 3.769531 30.460938 3.8125 30.558594 3.8125 30.675781 Z M 3.8125 30.675781 " fill-opacity="1" fill-rule="nonzero"/></g><g clip-path="url(#3faf468822)"><path fill="#080229" d="M 3.8125 32.992188 C 3.8125 33.109375 3.769531 33.207031 3.691406 33.289062 C 3.613281 33.371094 3.519531 33.414062 3.410156 33.414062 C 3.300781 33.414062 3.207031 33.371094 3.128906 33.289062 C 3.050781 33.207031 3.011719 33.109375 3.011719 32.992188 C 3.011719 32.878906 3.050781 32.777344 3.128906 32.695312 C 3.207031 32.613281 3.300781 32.574219 3.410156 32.574219 C 3.519531 32.574219 3.613281 32.613281 3.691406 32.695312 C 3.769531 32.777344 3.8125 32.878906 3.8125 32.992188 Z M 3.8125 32.992188 " fill-opacity="1" fill-rule="nonzero"/></g><g clip-path="url(#6ee4dc84b6)"><path fill="#080229" d="M 6.023438 19.074219 C 6.023438 19.191406 5.984375 19.289062 5.90625 19.371094 C 5.828125 19.453125 5.734375 19.496094 5.625 19.496094 C 5.511719 19.496094 5.417969 19.453125 5.339844 19.371094 C 5.261719 19.289062 5.222656 19.191406 5.222656 19.074219 C 5.222656 18.960938 5.261719 18.863281 5.339844 18.78125 C 5.417969 18.699219 5.511719 18.65625 5.625 18.65625 C 5.734375 18.65625 5.828125 18.699219 5.90625 18.78125 C 5.984375 18.863281 6.023438 18.960938 6.023438 19.074219 Z M 6.023438 19.074219 " fill-opacity="1" fill-rule="nonzero"/></g><path fill="#080229" d="M 6.023438 26.035156 C 6.023438 26.152344 5.984375 26.25 5.90625 26.332031 C 5.828125 26.414062 5.734375 26.453125 5.625 26.453125 C 5.511719 26.453125 5.417969 26.414062 5.339844 26.332031 C 5.261719 26.25 5.222656 26.152344 5.222656 26.035156 C 5.222656 25.917969 5.261719 25.820312 5.339844 25.738281 C 5.417969 25.65625 5.511719 25.617188 5.625 25.617188 C 5.734375 25.617188 5.828125 25.65625 5.90625 25.738281 C 5.984375 25.820312 6.023438 25.917969 6.023438 26.035156 Z M 6.023438 26.035156 " fill-opacity="1" fill-rule="nonzero"/><path fill="#080229" d="M 6.023438 21.394531 C 6.023438 21.511719 5.984375 21.609375 5.90625 21.691406 C 5.828125 21.773438 5.734375 21.816406 5.625 21.816406 C 5.511719 21.816406 5.417969 21.773438 5.339844 21.691406 C 5.261719 21.609375 5.222656 21.511719 5.222656 21.394531 C 5.222656 21.28125 5.261719 21.179688 5.339844 21.097656 C 5.417969 21.015625 5.511719 20.976562 5.625 20.976562 C 5.734375 20.976562 5.828125 21.015625 5.90625 21.097656 C 5.984375 21.179688 6.023438 21.28125 6.023438 21.394531 Z M 6.023438 21.394531 " fill-opacity="1" fill-rule="nonzero"/><path fill="#080229" d="M 6.023438 28.355469 C 6.023438 28.46875 5.984375 28.570312 5.90625 28.652344 C 5.828125 28.734375 5.734375 28.773438 5.625 28.773438 C 5.511719 28.773438 5.417969 28.734375 5.339844 28.652344 C 5.261719 28.570312 5.222656 28.46875 5.222656 28.355469 C 5.222656 28.238281 5.261719 28.140625 5.339844 28.058594 C 5.417969 27.976562 5.511719 27.933594 5.625 27.933594 C 5.734375 27.933594 5.828125 27.976562 5.90625 28.058594 C 5.984375 28.140625 6.023438 28.238281 6.023438 28.355469 Z M 6.023438 28.355469 " fill-opacity="1" fill-rule="nonzero"/><path fill="#080229" d="M 6.023438 23.714844 C 6.023438 23.832031 5.984375 23.929688 5.90625 24.011719 C 5.828125 24.09375 5.734375 24.132812 5.625 24.132812 C 5.511719 24.132812 5.417969 24.09375 5.339844 24.011719 C 5.261719 23.929688 5.222656 23.832031 5.222656 23.714844 C 5.222656 23.597656 5.261719 23.5 5.339844 23.417969 C 5.417969 23.335938 5.511719 23.296875 5.625 23.296875 C 5.734375 23.296875 5.828125 23.335938 5.90625 23.417969 C 5.984375 23.5 6.023438 23.597656 6.023438 23.714844 Z M 6.023438 23.714844 " fill-opacity="1" fill-rule="nonzero"/><path fill="#080229" d="M 6.023438 30.675781 C 6.023438 30.789062 5.984375 30.890625 5.90625 30.96875 C 5.828125 31.050781 5.734375 31.09375 5.625 31.09375 C 5.511719 31.09375 5.417969 31.050781 5.339844 30.96875 C 5.261719 30.890625 5.222656 30.789062 5.222656 30.675781 C 5.222656 30.558594 5.261719 30.460938 5.339844 30.378906 C 5.417969 30.296875 5.511719 30.253906 5.625 30.253906 C 5.734375 30.253906 5.828125 30.296875 5.90625 30.378906 C 5.984375 30.460938 6.023438 30.558594 6.023438 30.675781 Z M 6.023438 30.675781 " fill-opacity="1" fill-rule="nonzero"/><g clip-path="url(#fa6a2d832c)"><path fill="#080229" d="M 6.023438 32.992188 C 6.023438 33.109375 5.984375 33.207031 5.90625 33.289062 C 5.828125 33.371094 5.734375 33.414062 5.625 33.414062 C 5.511719 33.414062 5.417969 33.371094 5.339844 33.289062 C 5.261719 33.207031 5.222656 33.109375 5.222656 32.992188 C 5.222656 32.878906 5.261719 32.777344 5.339844 32.695312 C 5.417969 32.613281 5.511719 32.574219 5.625 32.574219 C 5.734375 32.574219 5.828125 32.613281 5.90625 32.695312 C 5.984375 32.777344 6.023438 32.878906 6.023438 32.992188 Z M 6.023438 32.992188 " fill-opacity="1" fill-rule="nonzero"/></g><g clip-path="url(#98ad2738b2)"><path fill="#080229" d="M 8.191406 19.074219 C 8.191406 19.191406 8.152344 19.289062 8.074219 19.371094 C 7.996094 19.453125 7.902344 19.496094 7.789062 19.496094 C 7.679688 19.496094 7.585938 19.453125 7.507812 19.371094 C 7.429688 19.289062 7.390625 19.191406 7.390625 19.074219 C 7.390625 18.960938 7.429688 18.863281 7.507812 18.78125 C 7.585938 18.699219 7.679688 18.65625 7.789062 18.65625 C 7.902344 18.65625 7.996094 18.699219 8.074219 18.78125 C 8.152344 18.863281 8.191406 18.960938 8.191406 19.074219 Z M 8.191406 19.074219 " fill-opacity="1" fill-rule="nonzero"/></g><g clip-path="url(#404b1ae460)"><path fill="#080229" d="M 8.191406 26.035156 C 8.191406 26.152344 8.152344 26.25 8.074219 26.332031 C 7.996094 26.414062 7.902344 26.453125 7.789062 26.453125 C 7.679688 26.453125 7.585938 26.414062 7.507812 26.332031 C 7.429688 26.25 7.390625 26.152344 7.390625 26.035156 C 7.390625 25.917969 7.429688 25.820312 7.507812 25.738281 C 7.585938 25.65625 7.679688 25.617188 7.789062 25.617188 C 7.902344 25.617188 7.996094 25.65625 8.074219 25.738281 C 8.152344 25.820312 8.191406 25.917969 8.191406 26.035156 Z M 8.191406 26.035156 " fill-opacity="1" fill-rule="nonzero"/></g><g clip-path="url(#bc6b831ed4)"><path fill="#080229" d="M 8.191406 21.394531 C 8.191406 21.511719 8.152344 21.609375 8.074219 21.691406 C 7.996094 21.773438 7.902344 21.816406 7.789062 21.816406 C 7.679688 21.816406 7.585938 21.773438 7.507812 21.691406 C 7.429688 21.609375 7.390625 21.511719 7.390625 21.394531 C 7.390625 21.28125 7.429688 21.179688 7.507812 21.097656 C 7.585938 21.015625 7.679688 20.976562 7.789062 20.976562 C 7.902344 20.976562 7.996094 21.015625 8.074219 21.097656 C 8.152344 21.179688 8.191406 21.28125 8.191406 21.394531 Z M 8.191406 21.394531 " fill-opacity="1" fill-rule="nonzero"/></g><g clip-path="url(#8071561464)"><path fill="#080229" d="M 8.191406 28.355469 C 8.191406 28.46875 8.152344 28.570312 8.074219 28.652344 C 7.996094 28.734375 7.902344 28.773438 7.789062 28.773438 C 7.679688 28.773438 7.585938 28.734375 7.507812 28.652344 C 7.429688 28.570312 7.390625 28.46875 7.390625 28.355469 C 7.390625 28.238281 7.429688 28.140625 7.507812 28.058594 C 7.585938 27.976562 7.679688 27.933594 7.789062 27.933594 C 7.902344 27.933594 7.996094 27.976562 8.074219 28.058594 C 8.152344 28.140625 8.191406 28.238281 8.191406 28.355469 Z M 8.191406 28.355469 " fill-opacity="1" fill-rule="nonzero"/></g><g clip-path="url(#0bae3bd526)"><path fill="#080229" d="M 8.191406 23.714844 C 8.191406 23.832031 8.152344 23.929688 8.074219 24.011719 C 7.996094 24.09375 7.902344 24.132812 7.789062 24.132812 C 7.679688 24.132812 7.585938 24.09375 7.507812 24.011719 C 7.429688 23.929688 7.390625 23.832031 7.390625 23.714844 C 7.390625 23.597656 7.429688 23.5 7.507812 23.417969 C 7.585938 23.335938 7.679688 23.296875 7.789062 23.296875 C 7.902344 23.296875 7.996094 23.335938 8.074219 23.417969 C 8.152344 23.5 8.191406 23.597656 8.191406 23.714844 Z M 8.191406 23.714844 " fill-opacity="1" fill-rule="nonzero"/></g><g clip-path="url(#a4eae27c30)"><path fill="#080229" d="M 8.191406 30.675781 C 8.191406 30.789062 8.152344 30.890625 8.074219 30.96875 C 7.996094 31.050781 7.902344 31.09375 7.789062 31.09375 C 7.679688 31.09375 7.585938 31.050781 7.507812 30.96875 C 7.429688 30.890625 7.390625 30.789062 7.390625 30.675781 C 7.390625 30.558594 7.429688 30.460938 7.507812 30.378906 C 7.585938 30.296875 7.679688 30.253906 7.789062 30.253906 C 7.902344 30.253906 7.996094 30.296875 8.074219 30.378906 C 8.152344 30.460938 8.191406 30.558594 8.191406 30.675781 Z M 8.191406 30.675781 " fill-opacity="1" fill-rule="nonzero"/></g><g clip-path="url(#97e0569785)"><path fill="#080229" d="M 8.191406 32.992188 C 8.191406 33.109375 8.152344 33.207031 8.074219 33.289062 C 7.996094 33.371094 7.902344 33.414062 7.789062 33.414062 C 7.679688 33.414062 7.585938 33.371094 7.507812 33.289062 C 7.429688 33.207031 7.390625 33.109375 7.390625 32.992188 C 7.390625 32.878906 7.429688 32.777344 7.507812 32.695312 C 7.585938 32.613281 7.679688 32.574219 7.789062 32.574219 C 7.902344 32.574219 7.996094 32.613281 8.074219 32.695312 C 8.152344 32.777344 8.191406 32.878906 8.191406 32.992188 Z M 8.191406 32.992188 " fill-opacity="1" fill-rule="nonzero"/></g><g clip-path="url(#4563af4cb0)"><path fill="#080229" d="M 66.136719 4.144531 C 66.136719 4.257812 66.097656 4.359375 66.019531 4.441406 C 65.941406 4.523438 65.847656 4.5625 65.738281 4.5625 C 65.625 4.5625 65.53125 4.523438 65.453125 4.441406 C 65.375 4.359375 65.335938 4.257812 65.335938 4.144531 C 65.335938 4.027344 65.375 3.929688 65.453125 3.847656 C 65.53125 3.765625 65.625 3.722656 65.738281 3.722656 C 65.847656 3.722656 65.941406 3.765625 66.019531 3.847656 C 66.097656 3.929688 66.136719 4.027344 66.136719 4.144531 Z M 66.136719 4.144531 " fill-opacity="1" fill-rule="nonzero"/></g><g clip-path="url(#d809e85a62)"><path fill="#080229" d="M 66.136719 11.101562 C 66.136719 11.21875 66.097656 11.316406 66.019531 11.398438 C 65.941406 11.480469 65.847656 11.519531 65.738281 11.519531 C 65.625 11.519531 65.53125 11.480469 65.453125 11.398438 C 65.375 11.316406 65.335938 11.21875 65.335938 11.101562 C 65.335938 10.984375 65.375 10.886719 65.453125 10.804688 C 65.53125 10.722656 65.625 10.683594 65.738281 10.683594 C 65.847656 10.683594 65.941406 10.722656 66.019531 10.804688 C 66.097656 10.886719 66.136719 10.984375 66.136719 11.101562 Z M 66.136719 11.101562 " fill-opacity="1" fill-rule="nonzero"/></g><g clip-path="url(#30fb330455)"><path fill="#080229" d="M 66.136719 6.460938 C 66.136719 6.578125 66.097656 6.675781 66.019531 6.757812 C 65.941406 6.839844 65.847656 6.882812 65.738281 6.882812 C 65.625 6.882812 65.53125 6.839844 65.453125 6.757812 C 65.375 6.675781 65.335938 6.578125 65.335938 6.460938 C 65.335938 6.347656 65.375 6.25 65.453125 6.167969 C 65.53125 6.085938 65.625 6.042969 65.738281 6.042969 C 65.847656 6.042969 65.941406 6.085938 66.019531 6.167969 C 66.097656 6.25 66.136719 6.347656 66.136719 6.460938 Z M 66.136719 6.460938 " fill-opacity="1" fill-rule="nonzero"/></g><g clip-path="url(#2b522d6d06)"><path fill="#080229" d="M 66.136719 13.421875 C 66.136719 13.539062 66.097656 13.636719 66.019531 13.71875 C 65.941406 13.800781 65.847656 13.839844 65.738281 13.839844 C 65.625 13.839844 65.53125 13.800781 65.453125 13.71875 C 65.375 13.636719 65.335938 13.539062 65.335938 13.421875 C 65.335938 13.304688 65.375 13.207031 65.453125 13.125 C 65.53125 13.042969 65.625 13.003906 65.738281 13.003906 C 65.847656 13.003906 65.941406 13.042969 66.019531 13.125 C 66.097656 13.207031 66.136719 13.304688 66.136719 13.421875 Z M 66.136719 13.421875 " fill-opacity="1" fill-rule="nonzero"/></g><g clip-path="url(#d852433e0e)"><path fill="#080229" d="M 66.136719 8.78125 C 66.136719 8.898438 66.097656 8.996094 66.019531 9.078125 C 65.941406 9.160156 65.847656 9.203125 65.738281 9.203125 C 65.625 9.203125 65.53125 9.160156 65.453125 9.078125 C 65.375 8.996094 65.335938 8.898438 65.335938 8.78125 C 65.335938 8.667969 65.375 8.566406 65.453125 8.484375 C 65.53125 8.402344 65.625 8.363281 65.738281 8.363281 C 65.847656 8.363281 65.941406 8.402344 66.019531 8.484375 C 66.097656 8.566406 66.136719 8.667969 66.136719 8.78125 Z M 66.136719 8.78125 " fill-opacity="1" fill-rule="nonzero"/></g><g clip-path="url(#b0593d9c64)"><path fill="#080229" d="M 66.136719 15.742188 C 66.136719 15.855469 66.097656 15.957031 66.019531 16.039062 C 65.941406 16.121094 65.847656 16.160156 65.738281 16.160156 C 65.625 16.160156 65.53125 16.121094 65.453125 16.039062 C 65.375 15.957031 65.335938 15.855469 65.335938 15.742188 C 65.335938 15.625 65.375 15.527344 65.453125 15.445312 C 65.53125 15.363281 65.625 15.320312 65.738281 15.320312 C 65.847656 15.320312 65.941406 15.363281 66.019531 15.445312 C 66.097656 15.527344 66.136719 15.625 66.136719 15.742188 Z M 66.136719 15.742188 " fill-opacity="1" fill-rule="nonzero"/></g><g clip-path="url(#9806ec1f53)"><path fill="#080229" d="M 66.136719 18.0625 C 66.136719 18.175781 66.097656 18.277344 66.019531 18.355469 C 65.941406 18.4375 65.847656 18.480469 65.738281 18.480469 C 65.625 18.480469 65.53125 18.4375 65.453125 18.355469 C 65.375 18.277344 65.335938 18.175781 65.335938 18.0625 C 65.335938 17.945312 65.375 17.847656 65.453125 17.765625 C 65.53125 17.683594 65.625 17.640625 65.738281 17.640625 C 65.847656 17.640625 65.941406 17.683594 66.019531 17.765625 C 66.097656 17.847656 66.136719 17.945312 66.136719 18.0625 Z M 66.136719 18.0625 " fill-opacity="1" fill-rule="nonzero"/></g><g clip-path="url(#8d5f14175e)"><path fill="#080229" d="M 68.351562 4.144531 C 68.351562 4.257812 68.3125 4.359375 68.234375 4.441406 C 68.15625 4.523438 68.0625 4.5625 67.949219 4.5625 C 67.839844 4.5625 67.746094 4.523438 67.667969 4.441406 C 67.589844 4.359375 67.550781 4.257812 67.550781 4.144531 C 67.550781 4.027344 67.589844 3.929688 67.667969 3.847656 C 67.746094 3.765625 67.839844 3.722656 67.949219 3.722656 C 68.0625 3.722656 68.15625 3.765625 68.234375 3.847656 C 68.3125 3.929688 68.351562 4.027344 68.351562 4.144531 Z M 68.351562 4.144531 " fill-opacity="1" fill-rule="nonzero"/></g><path fill="#080229" d="M 68.351562 11.101562 C 68.351562 11.21875 68.3125 11.316406 68.234375 11.398438 C 68.15625 11.480469 68.0625 11.519531 67.949219 11.519531 C 67.839844 11.519531 67.746094 11.480469 67.667969 11.398438 C 67.589844 11.316406 67.550781 11.21875 67.550781 11.101562 C 67.550781 10.984375 67.589844 10.886719 67.667969 10.804688 C 67.746094 10.722656 67.839844 10.683594 67.949219 10.683594 C 68.0625 10.683594 68.15625 10.722656 68.234375 10.804688 C 68.3125 10.886719 68.351562 10.984375 68.351562 11.101562 Z M 68.351562 11.101562 " fill-opacity="1" fill-rule="nonzero"/><path fill="#080229" d="M 68.351562 6.460938 C 68.351562 6.578125 68.3125 6.675781 68.234375 6.757812 C 68.15625 6.839844 68.0625 6.882812 67.949219 6.882812 C 67.839844 6.882812 67.746094 6.839844 67.667969 6.757812 C 67.589844 6.675781 67.550781 6.578125 67.550781 6.460938 C 67.550781 6.347656 67.589844 6.25 67.667969 6.167969 C 67.746094 6.085938 67.839844 6.042969 67.949219 6.042969 C 68.0625 6.042969 68.15625 6.085938 68.234375 6.167969 C 68.3125 6.25 68.351562 6.347656 68.351562 6.460938 Z M 68.351562 6.460938 " fill-opacity="1" fill-rule="nonzero"/><path fill="#080229" d="M 68.351562 13.421875 C 68.351562 13.539062 68.3125 13.636719 68.234375 13.71875 C 68.15625 13.800781 68.0625 13.839844 67.949219 13.839844 C 67.839844 13.839844 67.746094 13.800781 67.667969 13.71875 C 67.589844 13.636719 67.550781 13.539062 67.550781 13.421875 C 67.550781 13.304688 67.589844 13.207031 67.667969 13.125 C 67.746094 13.042969 67.839844 13.003906 67.949219 13.003906 C 68.0625 13.003906 68.15625 13.042969 68.234375 13.125 C 68.3125 13.207031 68.351562 13.304688 68.351562 13.421875 Z M 68.351562 13.421875 " fill-opacity="1" fill-rule="nonzero"/><path fill="#080229" d="M 68.351562 8.78125 C 68.351562 8.898438 68.3125 8.996094 68.234375 9.078125 C 68.15625 9.160156 68.0625 9.203125 67.949219 9.203125 C 67.839844 9.203125 67.746094 9.160156 67.667969 9.078125 C 67.589844 8.996094 67.550781 8.898438 67.550781 8.78125 C 67.550781 8.667969 67.589844 8.566406 67.667969 8.484375 C 67.746094 8.402344 67.839844 8.363281 67.949219 8.363281 C 68.0625 8.363281 68.15625 8.402344 68.234375 8.484375 C 68.3125 8.566406 68.351562 8.667969 68.351562 8.78125 Z M 68.351562 8.78125 " fill-opacity="1" fill-rule="nonzero"/><path fill="#080229" d="M 68.351562 15.742188 C 68.351562 15.855469 68.3125 15.957031 68.234375 16.039062 C 68.15625 16.121094 68.0625 16.160156 67.949219 16.160156 C 67.839844 16.160156 67.746094 16.121094 67.667969 16.039062 C 67.589844 15.957031 67.550781 15.855469 67.550781 15.742188 C 67.550781 15.625 67.589844 15.527344 67.667969 15.445312 C 67.746094 15.363281 67.839844 15.320312 67.949219 15.320312 C 68.0625 15.320312 68.15625 15.363281 68.234375 15.445312 C 68.3125 15.527344 68.351562 15.625 68.351562 15.742188 Z M 68.351562 15.742188 " fill-opacity="1" fill-rule="nonzero"/><g clip-path="url(#338e386987)"><path fill="#080229" d="M 68.351562 18.0625 C 68.351562 18.175781 68.3125 18.277344 68.234375 18.355469 C 68.15625 18.4375 68.0625 18.480469 67.949219 18.480469 C 67.839844 18.480469 67.746094 18.4375 67.667969 18.355469 C 67.589844 18.277344 67.550781 18.175781 67.550781 18.0625 C 67.550781 17.945312 67.589844 17.847656 67.667969 17.765625 C 67.746094 17.683594 67.839844 17.640625 67.949219 17.640625 C 68.0625 17.640625 68.15625 17.683594 68.234375 17.765625 C 68.3125 17.847656 68.351562 17.945312 68.351562 18.0625 Z M 68.351562 18.0625 " fill-opacity="1" fill-rule="nonzero"/></g><g clip-path="url(#789de79c56)"><path fill="#080229" d="M 70.519531 4.144531 C 70.519531 4.257812 70.480469 4.359375 70.402344 4.441406 C 70.324219 4.523438 70.226562 4.5625 70.117188 4.5625 C 70.007812 4.5625 69.914062 4.523438 69.835938 4.441406 C 69.757812 4.359375 69.71875 4.257812 69.71875 4.144531 C 69.71875 4.027344 69.757812 3.929688 69.835938 3.847656 C 69.914062 3.765625 70.007812 3.722656 70.117188 3.722656 C 70.226562 3.722656 70.324219 3.765625 70.402344 3.847656 C 70.480469 3.929688 70.519531 4.027344 70.519531 4.144531 Z M 70.519531 4.144531 " fill-opacity="1" fill-rule="nonzero"/></g><g clip-path="url(#9a2cfca013)"><path fill="#080229" d="M 70.519531 11.101562 C 70.519531 11.21875 70.480469 11.316406 70.402344 11.398438 C 70.324219 11.480469 70.226562 11.519531 70.117188 11.519531 C 70.007812 11.519531 69.914062 11.480469 69.835938 11.398438 C 69.757812 11.316406 69.71875 11.21875 69.71875 11.101562 C 69.71875 10.984375 69.757812 10.886719 69.835938 10.804688 C 69.914062 10.722656 70.007812 10.683594 70.117188 10.683594 C 70.226562 10.683594 70.324219 10.722656 70.402344 10.804688 C 70.480469 10.886719 70.519531 10.984375 70.519531 11.101562 Z M 70.519531 11.101562 " fill-opacity="1" fill-rule="nonzero"/></g><g clip-path="url(#10f878ab7a)"><path fill="#080229" d="M 70.519531 6.460938 C 70.519531 6.578125 70.480469 6.675781 70.402344 6.757812 C 70.324219 6.839844 70.226562 6.882812 70.117188 6.882812 C 70.007812 6.882812 69.914062 6.839844 69.835938 6.757812 C 69.757812 6.675781 69.71875 6.578125 69.71875 6.460938 C 69.71875 6.347656 69.757812 6.25 69.835938 6.167969 C 69.914062 6.085938 70.007812 6.042969 70.117188 6.042969 C 70.226562 6.042969 70.324219 6.085938 70.402344 6.167969 C 70.480469 6.25 70.519531 6.347656 70.519531 6.460938 Z M 70.519531 6.460938 " fill-opacity="1" fill-rule="nonzero"/></g><g clip-path="url(#0547f39117)"><path fill="#080229" d="M 70.519531 13.421875 C 70.519531 13.539062 70.480469 13.636719 70.402344 13.71875 C 70.324219 13.800781 70.226562 13.839844 70.117188 13.839844 C 70.007812 13.839844 69.914062 13.800781 69.835938 13.71875 C 69.757812 13.636719 69.71875 13.539062 69.71875 13.421875 C 69.71875 13.304688 69.757812 13.207031 69.835938 13.125 C 69.914062 13.042969 70.007812 13.003906 70.117188 13.003906 C 70.226562 13.003906 70.324219 13.042969 70.402344 13.125 C 70.480469 13.207031 70.519531 13.304688 70.519531 13.421875 Z M 70.519531 13.421875 " fill-opacity="1" fill-rule="nonzero"/></g><g clip-path="url(#c9afc9599c)"><path fill="#080229" d="M 70.519531 8.78125 C 70.519531 8.898438 70.480469 8.996094 70.402344 9.078125 C 70.324219 9.160156 70.226562 9.203125 70.117188 9.203125 C 70.007812 9.203125 69.914062 9.160156 69.835938 9.078125 C 69.757812 8.996094 69.71875 8.898438 69.71875 8.78125 C 69.71875 8.667969 69.757812 8.566406 69.835938 8.484375 C 69.914062 8.402344 70.007812 8.363281 70.117188 8.363281 C 70.226562 8.363281 70.324219 8.402344 70.402344 8.484375 C 70.480469 8.566406 70.519531 8.667969 70.519531 8.78125 Z M 70.519531 8.78125 " fill-opacity="1" fill-rule="nonzero"/></g><g clip-path="url(#c5fd9dfcb4)"><path fill="#080229" d="M 70.519531 15.742188 C 70.519531 15.855469 70.480469 15.957031 70.402344 16.039062 C 70.324219 16.121094 70.226562 16.160156 70.117188 16.160156 C 70.007812 16.160156 69.914062 16.121094 69.835938 16.039062 C 69.757812 15.957031 69.71875 15.855469 69.71875 15.742188 C 69.71875 15.625 69.757812 15.527344 69.835938 15.445312 C 69.914062 15.363281 70.007812 15.320312 70.117188 15.320312 C 70.226562 15.320312 70.324219 15.363281 70.402344 15.445312 C 70.480469 15.527344 70.519531 15.625 70.519531 15.742188 Z M 70.519531 15.742188 " fill-opacity="1" fill-rule="nonzero"/></g><g clip-path="url(#e85a799842)"><path fill="#080229" d="M 70.519531 18.0625 C 70.519531 18.175781 70.480469 18.277344 70.402344 18.355469 C 70.324219 18.4375 70.226562 18.480469 70.117188 18.480469 C 70.007812 18.480469 69.914062 18.4375 69.835938 18.355469 C 69.757812 18.277344 69.71875 18.175781 69.71875 18.0625 C 69.71875 17.945312 69.757812 17.847656 69.835938 17.765625 C 69.914062 17.683594 70.007812 17.640625 70.117188 17.640625 C 70.226562 17.640625 70.324219 17.683594 70.402344 17.765625 C 70.480469 17.847656 70.519531 17.945312 70.519531 18.0625 Z M 70.519531 18.0625 " fill-opacity="1" fill-rule="nonzero"/></g><g fill="#080229" fill-opacity="1"><g transform="translate(24.276565, 8.61718)"><g><path d="M 1.714844 0.0664062 C 2.5 0.0664062 3.007812 -0.316406 3.007812 -0.941406 C 3.007812 -1.46875 2.652344 -1.789062 1.738281 -2.011719 C 1.039062 -2.183594 0.808594 -2.367188 0.808594 -2.664062 C 0.808594 -3.007812 1.117188 -3.222656 1.628906 -3.222656 C 2.15625 -3.222656 2.484375 -2.957031 2.496094 -2.523438 L 2.941406 -2.523438 C 2.933594 -3.222656 2.433594 -3.652344 1.628906 -3.652344 C 0.84375 -3.652344 0.347656 -3.269531 0.347656 -2.664062 C 0.347656 -2.109375 0.742188 -1.804688 1.625 -1.59375 C 2.269531 -1.4375 2.539062 -1.261719 2.539062 -0.925781 C 2.539062 -0.574219 2.222656 -0.363281 1.714844 -0.363281 C 1.15625 -0.363281 0.769531 -0.640625 0.757812 -1.101562 L 0.308594 -1.101562 C 0.3125 -0.398438 0.859375 0.0664062 1.714844 0.0664062 Z M 1.714844 0.0664062 "/></g></g></g><g fill="#080229" fill-opacity="1"><g transform="translate(27.590655, 8.61718)"><g><path d="M 0.523438 0 L 0.972656 0 L 0.972656 -1.179688 L 1.738281 -1.179688 C 2.546875 -1.179688 3.066406 -1.644531 3.066406 -2.382812 C 3.066406 -3.113281 2.546875 -3.585938 1.738281 -3.585938 L 0.523438 -3.585938 Z M 0.972656 -1.597656 L 0.972656 -3.15625 L 1.726562 -3.15625 C 2.304688 -3.15625 2.605469 -2.890625 2.605469 -2.375 C 2.605469 -1.863281 2.304688 -1.597656 1.726562 -1.597656 Z M 0.972656 -1.597656 "/></g></g></g><g fill="#080229" fill-opacity="1"><g transform="translate(30.863771, 8.61718)"><g><path d="M 0.523438 0 L 2.753906 0 L 2.753906 -0.421875 L 0.972656 -0.421875 L 0.972656 -1.617188 L 2.570312 -1.617188 L 2.570312 -2.035156 L 0.972656 -2.035156 L 0.972656 -3.164062 L 2.699219 -3.164062 L 2.699219 -3.585938 L 0.523438 -3.585938 Z M 0.523438 0 "/></g></g></g><g fill="#080229" fill-opacity="1"><g transform="translate(33.952484, 8.61718)"><g><path d="M 2.109375 0.0664062 C 2.980469 0.0664062 3.6875 -0.460938 3.902344 -1.261719 L 3.425781 -1.261719 C 3.242188 -0.722656 2.734375 -0.382812 2.125 -0.382812 C 1.328125 -0.382812 0.757812 -0.964844 0.757812 -1.792969 C 0.757812 -2.621094 1.328125 -3.203125 2.125 -3.203125 C 2.71875 -3.203125 3.207031 -2.882812 3.390625 -2.367188 L 3.871094 -2.367188 C 3.636719 -3.15625 2.957031 -3.652344 2.109375 -3.652344 C 1.054688 -3.652344 0.296875 -2.875 0.296875 -1.792969 C 0.296875 -0.710938 1.054688 0.0664062 2.109375 0.0664062 Z M 2.109375 0.0664062 "/></g></g></g><g fill="#080229" fill-opacity="1"><g transform="translate(38.132234, 8.61718)"><g><path d="M 0.523438 0 L 0.972656 0 L 0.972656 -3.585938 L 0.523438 -3.585938 Z M 0.523438 0 "/></g></g></g><g fill="#080229" fill-opacity="1"><g transform="translate(39.62793, 8.61718)"><g><path d="M 0.0859375 0 L 0.570312 0 L 0.894531 -0.8125 L 2.644531 -0.8125 L 2.980469 0 L 3.457031 0 L 1.980469 -3.585938 L 1.5625 -3.585938 Z M 1.070312 -1.234375 L 1.773438 -2.957031 L 2.472656 -1.234375 Z M 1.070312 -1.234375 "/></g></g></g><g fill="#080229" fill-opacity="1"><g transform="translate(43.172523, 8.61718)"><g><path d="M 0.523438 0 L 2.714844 0 L 2.714844 -0.429688 L 0.972656 -0.429688 L 0.972656 -3.585938 L 0.523438 -3.585938 Z M 0.523438 0 "/></g></g></g><g fill="#080229" fill-opacity="1"><g transform="translate(19.155999, 16.227784)"><g><path d="M 2.058594 -5.160156 L 0.109375 -5.160156 C 0.375 -4.851562 0.382812 -4.390625 0.382812 -4.324219 L 0.382812 -0.847656 C 0.382812 -0.78125 0.375 -0.324219 0.109375 -0.015625 L 1.757812 -0.015625 C 1.757812 -0.015625 4.230469 -0.0234375 4.230469 -2.855469 C 4.230469 -5.160156 2.058594 -5.160156 2.058594 -5.160156 Z M 1.578125 -0.507812 L 1.375 -0.507812 L 1.375 -4.660156 L 1.710938 -4.660156 C 1.710938 -4.660156 3.210938 -4.660156 3.210938 -2.6875 C 3.210938 -0.621094 1.867188 -0.507812 1.578125 -0.507812 Z M 1.578125 -0.507812 "/></g></g></g><g fill="#080229" fill-opacity="1"><g transform="translate(23.504117, 16.227784)"><g><path d="M 1.292969 -4.320312 C 1.292969 -4.320312 1.292969 -4.730469 1.566406 -5.160156 L 0.109375 -5.160156 C 0.375 -4.851562 0.382812 -4.390625 0.382812 -4.320312 L 0.382812 -0.847656 C 0.382812 -0.78125 0.375 -0.324219 0.109375 -0.015625 L 1.566406 -0.015625 C 1.292969 -0.441406 1.292969 -0.855469 1.292969 -0.855469 Z M 1.292969 -4.320312 "/></g></g></g><g fill="#080229" fill-opacity="1"><g transform="translate(25.194642, 16.227784)"><g><path d="M 2.246094 -3.035156 C 1.578125 -3.519531 0.902344 -4.140625 0.902344 -4.390625 C 0.902344 -4.570312 1.039062 -4.613281 1.253906 -4.613281 C 2.015625 -4.613281 2.582031 -4.097656 3.078125 -3.699219 L 3.492188 -4.828125 C 3.269531 -5.027344 2.828125 -5.257812 2.023438 -5.257812 C 0.8125 -5.257812 0.214844 -4.578125 0.214844 -3.921875 C 0.214844 -3.285156 0.738281 -2.871094 1.476562 -2.296875 C 2.238281 -1.683594 2.984375 -1.0625 2.984375 -0.730469 C 2.984375 -0.582031 2.855469 -0.496094 2.5625 -0.496094 C 1.71875 -0.496094 1.195312 -0.988281 0.878906 -1.5 L 0.0351562 -0.597656 C 0.472656 -0.109375 1.027344 0.0820312 1.898438 0.0820312 C 3.042969 0.0820312 3.808594 -0.65625 3.808594 -1.308594 C 3.808594 -2.007812 2.976562 -2.496094 2.246094 -3.035156 Z M 2.246094 -3.035156 "/></g></g></g><g fill="#080229" fill-opacity="1"><g transform="translate(29.0703, 16.227784)"><g><path d="M 3.167969 -0.488281 C 1.84375 -0.488281 1.378906 -1.375 1.113281 -2.363281 C 0.980469 -2.84375 0.914062 -3.300781 0.914062 -3.660156 C 0.902344 -4.230469 1.0625 -4.511719 1.386719 -4.511719 C 2.429688 -4.511719 2.894531 -4.1875 3.175781 -3.667969 L 3.964844 -4.644531 C 3.566406 -5.070312 2.996094 -5.257812 2.378906 -5.257812 C 1.136719 -5.257812 0.140625 -4.546875 0.140625 -2.578125 C 0.140625 -0.613281 1.136719 0.0820312 2.378906 0.0820312 C 3.011719 0.0820312 3.585938 -0.101562 3.992188 -0.539062 C 3.722656 -0.523438 3.441406 -0.488281 3.167969 -0.488281 Z M 3.167969 -0.488281 "/></g></g></g><g fill="#080229" fill-opacity="1"><g transform="translate(33.05669, 16.227784)"><g><path d="M 2.378906 -5.257812 C 1.136719 -5.257812 0.140625 -4.546875 0.140625 -2.578125 C 0.140625 -0.613281 1.136719 0.0820312 2.378906 0.0820312 C 3.617188 0.0820312 4.621094 -0.613281 4.621094 -2.578125 C 4.621094 -4.519531 3.617188 -5.257812 2.378906 -5.257812 Z M 3.765625 -1.308594 C 3.765625 -0.835938 3.617188 -0.488281 3.167969 -0.488281 C 1.84375 -0.488281 1.378906 -1.375 1.113281 -2.363281 C 0.980469 -2.847656 0.914062 -3.300781 0.914062 -3.667969 C 0.902344 -4.230469 1.0625 -4.511719 1.386719 -4.511719 C 3.042969 -4.511719 3.382812 -3.792969 3.667969 -2.695312 C 3.789062 -2.273438 3.765625 -1.691406 3.765625 -1.308594 Z M 3.765625 -1.308594 "/></g></g></g><g fill="#080229" fill-opacity="1"><g transform="translate(37.825593, 16.227784)"><g><path d="M 3.160156 -5.160156 C 3.359375 -4.878906 3.410156 -4.445312 3.410156 -4.339844 C 3.410156 -4.339844 3.410156 -2.171875 3.410156 -1.710938 C 3.410156 -1.253906 3.335938 -0.480469 2.722656 -0.480469 C 2.132812 -0.480469 1.410156 -0.839844 1.410156 -1.75 C 1.410156 -2.648438 1.394531 -3.460938 1.386719 -4.320312 C 1.386719 -4.320312 1.386719 -4.730469 1.652344 -5.160156 L 0.0664062 -5.160156 C 0.332031 -4.851562 0.332031 -4.386719 0.339844 -4.324219 L 0.339844 -1.867188 C 0.363281 -0.871094 0.695312 0.0742188 2.230469 0.0742188 C 3.859375 0.0742188 4.148438 -1.195312 4.148438 -1.734375 C 4.148438 -2.265625 4.148438 -4.320312 4.148438 -4.320312 C 4.148438 -4.320312 4.148438 -4.730469 4.398438 -5.160156 Z M 3.160156 -5.160156 "/></g></g></g><g fill="#080229" fill-opacity="1"><g transform="translate(42.321356, 16.227784)"><g><path d="M 3.34375 -5.160156 C 3.527344 -4.851562 3.601562 -4.605469 3.601562 -4.125 L 3.601562 -1.609375 L 1.136719 -5.160156 L 0.125 -5.160156 C 0.300781 -4.851562 0.382812 -4.605469 0.382812 -4.125 L 0.382812 -1.046875 C 0.382812 -0.570312 0.300781 -0.324219 0.125 -0.015625 L 1.261719 -0.015625 C 1.085938 -0.324219 0.996094 -0.570312 0.996094 -1.046875 L 0.996094 -3.519531 L 3.203125 -0.457031 C 3.441406 -0.0820312 3.789062 0.0976562 4.230469 0.0820312 L 4.230469 -4.171875 C 4.230469 -4.597656 4.3125 -4.851562 4.488281 -5.160156 Z M 3.34375 -5.160156 "/></g></g></g><g fill="#080229" fill-opacity="1"><g transform="translate(46.927852, 16.227784)"><g><path d="M -0.0820312 -5.160156 L 0.28125 -4.207031 L 0.730469 -4.554688 C 0.828125 -4.621094 0.921875 -4.660156 1.035156 -4.664062 L 1.601562 -4.664062 L 1.601562 -0.847656 C 1.601562 -0.789062 1.59375 -0.324219 1.320312 -0.0234375 L 2.863281 -0.0234375 C 2.589844 -0.441406 2.589844 -0.855469 2.589844 -0.855469 L 2.589844 -4.664062 L 3.175781 -4.664062 C 3.292969 -4.660156 3.386719 -4.621094 3.476562 -4.554688 L 3.933594 -4.207031 L 4.320312 -5.160156 Z M -0.0820312 -5.160156 "/></g></g></g><g fill="#080229" fill-opacity="1"><g transform="translate(24.985315, 19.291403)"><g><path d="M 0.144531 0 L 0.542969 0 L 0.542969 -0.410156 L 1.007812 -0.410156 L 1.007812 -0.757812 L 0.542969 -0.757812 L 0.542969 -1.027344 L 1.058594 -1.027344 L 1.058594 -1.382812 L 0.144531 -1.382812 Z M 0.144531 0 "/></g></g></g><g fill="#080229" fill-opacity="1"><g transform="translate(26.118218, 19.291403)"><g><path d="M 0.820312 0.03125 C 1.257812 0.03125 1.570312 -0.269531 1.570312 -0.691406 C 1.570312 -1.113281 1.257812 -1.410156 0.820312 -1.410156 C 0.378906 -1.410156 0.0664062 -1.113281 0.0664062 -0.691406 C 0.0664062 -0.269531 0.378906 0.03125 0.820312 0.03125 Z M 0.472656 -0.691406 C 0.472656 -0.898438 0.617188 -1.042969 0.820312 -1.042969 C 1.023438 -1.042969 1.167969 -0.898438 1.167969 -0.691406 C 1.167969 -0.484375 1.023438 -0.339844 0.820312 -0.339844 C 0.617188 -0.339844 0.472656 -0.484375 0.472656 -0.691406 Z M 0.472656 -0.691406 "/></g></g></g><g fill="#080229" fill-opacity="1"><g transform="translate(27.758362, 19.291403)"><g><path d="M 0.144531 0 L 0.542969 0 L 0.542969 -0.394531 L 0.695312 -0.394531 L 0.890625 0 L 1.34375 0 L 1.089844 -0.464844 C 1.234375 -0.546875 1.320312 -0.691406 1.320312 -0.886719 C 1.320312 -1.191406 1.109375 -1.382812 0.777344 -1.382812 L 0.144531 -1.382812 Z M 0.535156 -0.710938 L 0.535156 -1.054688 L 0.722656 -1.054688 C 0.847656 -1.054688 0.917969 -0.996094 0.917969 -0.882812 C 0.917969 -0.773438 0.847656 -0.710938 0.722656 -0.710938 Z M 0.535156 -0.710938 "/></g></g></g><g fill="#080229" fill-opacity="1"><g transform="translate(29.179425, 19.291403)"><g/></g></g><g fill="#080229" fill-opacity="1"><g transform="translate(29.635349, 19.291403)"><g><path d="M 0.144531 0 L 0.542969 0 L 0.542969 -0.339844 L 0.726562 -0.339844 C 1.078125 -0.339844 1.300781 -0.542969 1.300781 -0.863281 C 1.300781 -1.179688 1.078125 -1.382812 0.726562 -1.382812 L 0.144531 -1.382812 Z M 0.539062 -0.675781 L 0.539062 -1.046875 L 0.691406 -1.046875 C 0.824219 -1.046875 0.898438 -0.976562 0.898438 -0.859375 C 0.898438 -0.742188 0.824219 -0.675781 0.691406 -0.675781 Z M 0.539062 -0.675781 "/></g></g></g><g fill="#080229" fill-opacity="1"><g transform="translate(30.983385, 19.291403)"><g><path d="M 0.144531 0 L 0.542969 0 L 0.542969 -0.394531 L 0.695312 -0.394531 L 0.890625 0 L 1.34375 0 L 1.089844 -0.464844 C 1.234375 -0.546875 1.320312 -0.691406 1.320312 -0.886719 C 1.320312 -1.191406 1.109375 -1.382812 0.777344 -1.382812 L 0.144531 -1.382812 Z M 0.535156 -0.710938 L 0.535156 -1.054688 L 0.722656 -1.054688 C 0.847656 -1.054688 0.917969 -0.996094 0.917969 -0.882812 C 0.917969 -0.773438 0.847656 -0.710938 0.722656 -0.710938 Z M 0.535156 -0.710938 "/></g></g></g><g fill="#080229" fill-opacity="1"><g transform="translate(32.404447, 19.291403)"><g><path d="M 0.144531 0 L 1.113281 0 L 1.113281 -0.324219 L 0.539062 -0.324219 L 0.539062 -0.539062 L 1.039062 -0.539062 L 1.039062 -0.859375 L 0.539062 -0.859375 L 0.539062 -1.058594 L 1.09375 -1.058594 L 1.09375 -1.382812 L 0.144531 -1.382812 Z M 0.144531 0 "/></g></g></g><g fill="#080229" fill-opacity="1"><g transform="translate(33.608404, 19.291403)"><g><path d="M 0.144531 0 L 0.539062 0 L 0.539062 -0.699219 L 0.808594 -0.328125 L 1.066406 -0.328125 L 1.332031 -0.699219 L 1.332031 0 L 1.726562 0 L 1.726562 -1.382812 L 1.402344 -1.382812 L 0.933594 -0.722656 L 0.472656 -1.382812 L 0.144531 -1.382812 Z M 0.144531 0 "/></g></g></g><g fill="#080229" fill-opacity="1"><g transform="translate(35.47947, 19.291403)"><g><path d="M 0.144531 0 L 0.542969 0 L 0.542969 -1.382812 L 0.144531 -1.382812 Z M 0.144531 0 "/></g></g></g><g fill="#080229" fill-opacity="1"><g transform="translate(36.170264, 19.291403)"><g><path d="M 0.738281 0.03125 C 1.113281 0.03125 1.34375 -0.199219 1.34375 -0.570312 L 1.34375 -1.382812 L 0.949219 -1.382812 L 0.949219 -0.59375 C 0.949219 -0.429688 0.878906 -0.34375 0.738281 -0.34375 C 0.601562 -0.34375 0.53125 -0.429688 0.53125 -0.59375 L 0.53125 -1.382812 L 0.132812 -1.382812 L 0.132812 -0.570312 C 0.132812 -0.199219 0.367188 0.03125 0.738281 0.03125 Z M 0.738281 0.03125 "/></g></g></g><g fill="#080229" fill-opacity="1"><g transform="translate(37.650537, 19.291403)"><g><path d="M 0.144531 0 L 0.539062 0 L 0.539062 -0.699219 L 0.808594 -0.328125 L 1.066406 -0.328125 L 1.332031 -0.699219 L 1.332031 0 L 1.726562 0 L 1.726562 -1.382812 L 1.402344 -1.382812 L 0.933594 -0.722656 L 0.472656 -1.382812 L 0.144531 -1.382812 Z M 0.144531 0 "/></g></g></g><g fill="#080229" fill-opacity="1"><g transform="translate(39.521603, 19.291403)"><g/></g></g><g fill="#080229" fill-opacity="1"><g transform="translate(39.977528, 19.291403)"><g><path d="M 0.738281 0.03125 C 1.113281 0.03125 1.34375 -0.199219 1.34375 -0.570312 L 1.34375 -1.382812 L 0.949219 -1.382812 L 0.949219 -0.59375 C 0.949219 -0.429688 0.878906 -0.34375 0.738281 -0.34375 C 0.601562 -0.34375 0.53125 -0.429688 0.53125 -0.59375 L 0.53125 -1.382812 L 0.132812 -1.382812 L 0.132812 -0.570312 C 0.132812 -0.199219 0.367188 0.03125 0.738281 0.03125 Z M 0.738281 0.03125 "/></g></g></g><g fill="#080229" fill-opacity="1"><g transform="translate(41.457801, 19.291403)"><g><path d="M 0.640625 0.03125 C 0.984375 0.03125 1.1875 -0.132812 1.1875 -0.40625 C 1.1875 -0.632812 1.039062 -0.769531 0.703125 -0.84375 C 0.527344 -0.882812 0.460938 -0.925781 0.460938 -0.996094 C 0.460938 -1.0625 0.519531 -1.105469 0.613281 -1.105469 C 0.722656 -1.105469 0.789062 -1.046875 0.789062 -0.945312 L 1.164062 -0.945312 C 1.164062 -1.226562 0.945312 -1.410156 0.605469 -1.410156 C 0.28125 -1.410156 0.078125 -1.25 0.078125 -0.988281 C 0.078125 -0.757812 0.230469 -0.613281 0.542969 -0.550781 C 0.710938 -0.519531 0.792969 -0.46875 0.792969 -0.390625 C 0.792969 -0.320312 0.730469 -0.28125 0.636719 -0.28125 C 0.519531 -0.28125 0.453125 -0.339844 0.453125 -0.449219 L 0.0703125 -0.449219 C 0.0703125 -0.148438 0.28125 0.03125 0.640625 0.03125 Z M 0.640625 0.03125 "/></g></g></g><g fill="#080229" fill-opacity="1"><g transform="translate(42.718995, 19.291403)"><g><path d="M 0.144531 0 L 1.113281 0 L 1.113281 -0.324219 L 0.539062 -0.324219 L 0.539062 -0.539062 L 1.039062 -0.539062 L 1.039062 -0.859375 L 0.539062 -0.859375 L 0.539062 -1.058594 L 1.09375 -1.058594 L 1.09375 -1.382812 L 0.144531 -1.382812 Z M 0.144531 0 "/></g></g></g><g fill="#080229" fill-opacity="1"><g transform="translate(43.922951, 19.291403)"><g><path d="M 0.144531 0 L 0.542969 0 L 0.542969 -0.394531 L 0.695312 -0.394531 L 0.890625 0 L 1.34375 0 L 1.089844 -0.464844 C 1.234375 -0.546875 1.320312 -0.691406 1.320312 -0.886719 C 1.320312 -1.191406 1.109375 -1.382812 0.777344 -1.382812 L 0.144531 -1.382812 Z M 0.535156 -0.710938 L 0.535156 -1.054688 L 0.722656 -1.054688 C 0.847656 -1.054688 0.917969 -0.996094 0.917969 -0.882812 C 0.917969 -0.773438 0.847656 -0.710938 0.722656 -0.710938 Z M 0.535156 -0.710938 "/></g></g></g><g fill="#080229" fill-opacity="1"><g transform="translate(20.382333, 34.229393)"><g><path d="M 0.203125 0 L 1.558594 0 L 1.558594 -0.519531 L 0.765625 -0.519531 L 0.765625 -1.9375 L 0.203125 -1.9375 Z M 0.203125 0 "/></g></g></g><g fill="#080229" fill-opacity="1"><g transform="translate(22.008585, 34.229393)"><g><path d="M 0.203125 0 L 0.765625 0 L 0.765625 -1.9375 L 0.203125 -1.9375 Z M 0.203125 0 "/></g></g></g><g fill="#080229" fill-opacity="1"><g transform="translate(22.97824, 34.229393)"><g><path d="M 0.203125 0 L 0.757812 0 L 0.757812 -0.984375 L 1.132812 -0.460938 L 1.496094 -0.460938 L 1.867188 -0.980469 L 1.867188 0 L 2.421875 0 L 2.421875 -1.9375 L 1.96875 -1.9375 L 1.3125 -1.015625 L 0.664062 -1.9375 L 0.203125 -1.9375 Z M 0.203125 0 "/></g></g></g><g fill="#080229" fill-opacity="1"><g transform="translate(25.604623, 34.229393)"><g><path d="M 0.203125 0 L 0.765625 0 L 0.765625 -1.9375 L 0.203125 -1.9375 Z M 0.203125 0 "/></g></g></g><g fill="#080229" fill-opacity="1"><g transform="translate(26.574278, 34.229393)"><g><path d="M 0.667969 0 L 1.222656 0 L 1.222656 -1.421875 L 1.816406 -1.421875 L 1.816406 -1.9375 L 0.078125 -1.9375 L 0.078125 -1.421875 L 0.667969 -1.421875 Z M 0.667969 0 "/></g></g></g><g fill="#080229" fill-opacity="1"><g transform="translate(28.466493, 34.229393)"><g><path d="M 0.203125 0 L 1.566406 0 L 1.566406 -0.457031 L 0.757812 -0.457031 L 0.757812 -0.757812 L 1.460938 -0.757812 L 1.460938 -1.207031 L 0.757812 -1.207031 L 0.757812 -1.488281 L 1.535156 -1.488281 L 1.535156 -1.9375 L 0.203125 -1.9375 Z M 0.203125 0 "/></g></g></g><g fill="#080229" fill-opacity="1"><g transform="translate(30.156465, 34.229393)"><g><path d="M 0.203125 0 L 1.027344 0 C 1.652344 0 2.070312 -0.386719 2.070312 -0.96875 C 2.070312 -1.550781 1.652344 -1.9375 1.027344 -1.9375 L 0.203125 -1.9375 Z M 0.765625 -0.5 L 0.765625 -1.4375 L 1.011719 -1.4375 C 1.308594 -1.4375 1.5 -1.253906 1.5 -0.96875 C 1.5 -0.683594 1.308594 -0.5 1.011719 -0.5 Z M 0.765625 -0.5 "/></g></g></g><g fill="#080229" fill-opacity="1"><g transform="translate(32.320184, 34.229393)"><g/></g></g><g fill="#080229" fill-opacity="1"><g transform="translate(32.960156, 34.229393)"><g><path d="M 0.667969 0 L 1.222656 0 L 1.222656 -1.421875 L 1.816406 -1.421875 L 1.816406 -1.9375 L 0.078125 -1.9375 L 0.078125 -1.421875 L 0.667969 -1.421875 Z M 0.667969 0 "/></g></g></g><g fill="#080229" fill-opacity="1"><g transform="translate(34.852371, 34.229393)"><g><path d="M 0.203125 0 L 0.765625 0 L 0.765625 -1.9375 L 0.203125 -1.9375 Z M 0.203125 0 "/></g></g></g><g fill="#080229" fill-opacity="1"><g transform="translate(35.822027, 34.229393)"><g><path d="M 0.203125 0 L 0.757812 0 L 0.757812 -0.984375 L 1.132812 -0.460938 L 1.496094 -0.460938 L 1.867188 -0.980469 L 1.867188 0 L 2.421875 0 L 2.421875 -1.9375 L 1.96875 -1.9375 L 1.3125 -1.015625 L 0.664062 -1.9375 L 0.203125 -1.9375 Z M 0.203125 0 "/></g></g></g><g fill="#080229" fill-opacity="1"><g transform="translate(38.448409, 34.229393)"><g><path d="M 0.203125 0 L 1.566406 0 L 1.566406 -0.457031 L 0.757812 -0.457031 L 0.757812 -0.757812 L 1.460938 -0.757812 L 1.460938 -1.207031 L 0.757812 -1.207031 L 0.757812 -1.488281 L 1.535156 -1.488281 L 1.535156 -1.9375 L 0.203125 -1.9375 Z M 0.203125 0 "/></g></g></g><g fill="#080229" fill-opacity="1"><g transform="translate(40.138381, 34.229393)"><g/></g></g><g fill="#080229" fill-opacity="1"><g transform="translate(40.778354, 34.229393)"><g><path d="M 1.148438 0.0429688 C 1.765625 0.0429688 2.207031 -0.375 2.207031 -0.96875 C 2.207031 -1.5625 1.765625 -1.980469 1.148438 -1.980469 C 0.53125 -1.980469 0.09375 -1.5625 0.09375 -0.96875 C 0.09375 -0.375 0.53125 0.0429688 1.148438 0.0429688 Z M 0.664062 -0.96875 C 0.664062 -1.261719 0.863281 -1.460938 1.148438 -1.460938 C 1.4375 -1.460938 1.636719 -1.261719 1.636719 -0.96875 C 1.636719 -0.679688 1.4375 -0.476562 1.148438 -0.476562 C 0.863281 -0.476562 0.664062 -0.679688 0.664062 -0.96875 Z M 0.664062 -0.96875 "/></g></g></g><g fill="#080229" fill-opacity="1"><g transform="translate(43.080596, 34.229393)"><g><path d="M 0.203125 0 L 0.765625 0 L 0.765625 -0.578125 L 1.414062 -0.578125 L 1.414062 -1.0625 L 0.765625 -1.0625 L 0.765625 -1.441406 L 1.484375 -1.441406 L 1.484375 -1.9375 L 0.203125 -1.9375 Z M 0.203125 0 "/></g></g></g><g fill="#080229" fill-opacity="1"><g transform="translate(44.670831, 34.229393)"><g><path d="M 0.203125 0 L 0.765625 0 L 0.765625 -0.578125 L 1.414062 -0.578125 L 1.414062 -1.0625 L 0.765625 -1.0625 L 0.765625 -1.441406 L 1.484375 -1.441406 L 1.484375 -1.9375 L 0.203125 -1.9375 Z M 0.203125 0 "/></g></g></g><g fill="#080229" fill-opacity="1"><g transform="translate(46.261066, 34.229393)"><g><path d="M 0.203125 0 L 1.566406 0 L 1.566406 -0.457031 L 0.757812 -0.457031 L 0.757812 -0.757812 L 1.460938 -0.757812 L 1.460938 -1.207031 L 0.757812 -1.207031 L 0.757812 -1.488281 L 1.535156 -1.488281 L 1.535156 -1.9375 L 0.203125 -1.9375 Z M 0.203125 0 "/></g></g></g><g fill="#080229" fill-opacity="1"><g transform="translate(47.951038, 34.229393)"><g><path d="M 0.203125 0 L 0.765625 0 L 0.765625 -0.550781 L 0.976562 -0.550781 L 1.253906 0 L 1.886719 0 L 1.527344 -0.652344 C 1.734375 -0.765625 1.851562 -0.972656 1.851562 -1.242188 C 1.851562 -1.671875 1.558594 -1.9375 1.089844 -1.9375 L 0.203125 -1.9375 Z M 0.753906 -0.996094 L 0.753906 -1.480469 L 1.015625 -1.480469 C 1.191406 -1.480469 1.289062 -1.394531 1.289062 -1.242188 C 1.289062 -1.085938 1.191406 -0.996094 1.015625 -0.996094 Z M 0.753906 -0.996094 "/></g></g></g></svg>