<svg width="183" height="55" viewBox="0 0 183 55" fill="none" xmlns="http://www.w3.org/2000/svg">
<path d="M20.2877 4.49387C17.9806 1.98969 15.1542 0.490861 11.8083 0H0V45.2196H5.38478V30.751H10.3009C14.2024 30.751 17.5313 29.2469 20.2877 26.2414C23.0465 23.2384 24.4235 19.6056 24.4235 15.3479C24.4235 11.127 23.0465 7.50991 20.2877 4.49387ZM16.4515 22.0887C14.7435 23.9446 12.6925 24.8712 10.3009 24.8712H5.38478V5.87984H10.3009C12.6925 5.87984 14.7435 6.80381 16.4515 8.64913C18.1594 10.4971 19.0146 12.7283 19.0146 15.3479C19.0146 17.986 18.1594 20.2329 16.4515 22.0887Z" fill="#1288D8"/>
<path d="M50.9322 16.1379V18.1722C48.3328 15.2716 45.3155 13.8201 41.8827 13.8201C37.788 13.8201 34.2996 15.3898 31.4127 18.5266C28.5259 21.6633 27.0812 25.4563 27.0812 29.903C27.0812 34.3496 28.5259 38.14 31.4127 41.2768C34.2996 44.4162 37.788 45.9833 41.8827 45.9833C45.3155 45.9833 48.3328 44.5238 50.9322 41.6023V45.2483H56.3436V16.1379H50.9322ZM50.9322 32.0502C50.6206 33.8771 49.7896 35.5361 48.4367 37.0244C46.6152 38.9852 44.4314 39.9643 41.8827 39.9643C39.3147 39.9643 37.126 38.98 35.3142 37.0113C33.5024 35.0426 32.5965 32.6723 32.5965 29.903C32.5965 27.1153 33.5024 24.7397 35.3142 22.7789C37.126 20.8207 39.3147 19.8416 41.8827 19.8416C44.4314 19.8416 46.6152 20.8207 48.4367 22.7789C49.7896 24.2699 50.6206 25.9262 50.9322 27.7532V32.0502Z" fill="#1288D8"/>
<path d="M80.1967 16.1379L73.4083 32.0502L66.62 16.1379H60.5588L70.5214 38.749L63.3949 54.9999H69.0913L86.2313 16.1379H80.1967Z" fill="#1288D8"/>
<path d="M103.811 0H100.897L85.7574 45.2196H91.507L96.8386 29.2233H107.867L113.225 45.2196H118.948L103.811 0ZM98.8147 23.3749L102.354 12.7755L105.917 23.3749H98.8147Z" fill="#1288D8"/>
<path d="M126.159 4.18408C125.135 4.18408 124.251 4.58045 123.507 5.37055C122.76 6.16066 122.388 7.13187 122.388 8.28159C122.388 9.4313 122.76 10.4025 123.507 11.1926C124.251 11.9827 125.138 12.3791 126.159 12.3791C127.201 12.3791 128.092 11.9827 128.839 11.1926C129.583 10.4025 129.957 9.4313 129.957 8.28159C129.957 7.13187 129.585 6.16066 128.839 5.37055C128.092 4.57783 127.198 4.18408 126.159 4.18408Z" fill="#1288D8"/>
<path d="M128.865 16.1379H123.48V45.2195H128.865V16.1379Z" fill="#1288D8"/>
<path d="M144.082 26.3697C142.92 25.5586 142.173 24.9838 141.845 24.6451C141.48 24.2488 141.299 23.7684 141.299 23.2041C141.299 22.6397 141.485 22.1541 141.857 21.7472C142.229 21.343 142.676 21.1409 143.197 21.1409C143.717 21.1409 144.135 21.3115 144.446 21.6501C144.567 21.8023 144.688 22.1121 144.811 22.5819L150.039 20.944C149.778 19.663 149.172 18.5054 148.217 17.4686C146.882 15.9986 145.21 15.2637 143.197 15.2637C141.185 15.2637 139.47 16.0406 138.047 17.5946C136.624 19.1485 135.914 21.0201 135.914 23.2041C135.914 25.3723 136.624 27.2281 138.047 28.7715C138.861 29.6587 140.241 30.6746 142.183 31.8243C143.603 32.8034 144.533 33.5305 144.966 34.0004C145.589 34.6776 145.903 35.4992 145.903 36.4599C145.903 37.46 145.587 38.2974 144.954 38.9746C144.321 39.6518 143.562 39.9931 142.678 39.9931C141.794 39.9931 141.031 39.6545 140.39 38.9746C140.062 38.6176 139.818 38.0034 139.661 37.1372L134.303 38.3814C134.667 40.2661 135.431 41.8384 136.59 43.101C138.272 44.9489 140.301 45.8703 142.676 45.8703C145.07 45.8703 147.101 44.9516 148.776 43.1141C150.45 41.2767 151.286 39.0586 151.286 36.4573C151.286 33.9138 150.445 31.7193 148.763 29.8714C147.792 28.8188 146.232 27.6507 144.082 26.3697Z" fill="#1288D8"/>
<path d="M177.615 35.2449C176.922 36.1479 176.463 36.7332 176.238 36.9957C174.417 38.9565 172.223 39.9356 169.655 39.9356C167.28 39.9356 165.643 39.5025 164.742 38.6363L178.917 23.2332L181.621 20.2645C180.806 19.267 180.311 18.6737 180.14 18.4847C179.722 18.0333 179.297 17.608 178.864 17.2117C176.229 14.9149 173.158 13.7651 169.655 13.7651C165.582 13.7651 162.096 15.3375 159.2 18.4847C156.303 21.632 154.856 25.4277 154.856 29.8743C154.856 34.3209 156.303 38.1166 159.2 41.2639C162.096 44.4111 165.582 45.9835 169.655 45.9835C173.75 45.9835 177.243 44.4111 180.14 41.2639C180.727 40.6234 181.681 39.3135 183 37.3343L177.615 35.2449ZM160.396 29.8743C160.396 27.0866 161.304 24.7058 163.116 22.7371C164.928 20.7684 167.107 19.7841 169.655 19.7841C171.771 19.7841 173.134 20.0387 173.74 20.5479L161.099 34.3104C160.63 33.6332 160.396 32.1554 160.396 29.8743Z" fill="#1288D8"/>
</svg>
